<mxfile host="app.diagrams.net" agent="Mozilla/5.0 (Windows NT 10.0; Win64; x64) AppleWebKit/537.36 (KHTML, like Gecko) Chrome/134.0.0.0 Safari/537.36 Edg/134.0.0.0" version="26.1.0">
  <diagram name="Страница — 1" id="XYHAIz7-M4xYpszr3OcH">
    <mxGraphModel dx="545" dy="657" grid="1" gridSize="10" guides="1" tooltips="1" connect="1" arrows="1" fold="1" page="1" pageScale="1" pageWidth="827" pageHeight="1169" math="0" shadow="0">
      <root>
        <mxCell id="0" />
        <mxCell id="1" parent="0" />
        <mxCell id="Wq5ZTLz32C6b916gWCb0-1" value="Packet" style="swimlane;fontStyle=0;childLayout=stackLayout;horizontal=1;startSize=30;horizontalStack=0;resizeParent=1;resizeParentMax=0;resizeLast=0;collapsible=1;marginBottom=0;whiteSpace=wrap;html=1;" vertex="1" collapsed="1" parent="1">
          <mxGeometry x="311" y="150" width="60" height="30" as="geometry">
            <mxRectangle x="311" y="150" width="230" height="260" as="alternateBounds" />
          </mxGeometry>
        </mxCell>
        <mxCell id="Wq5ZTLz32C6b916gWCb0-8" value="- date: Date&lt;div&gt;- bytes: int&lt;br&gt;- type: Type&lt;/div&gt;&lt;div&gt;- source: InetAddress&lt;br&gt;- destination: InetAddress&lt;br&gt;+ Type: enum&lt;/div&gt;" style="text;strokeColor=default;fillColor=none;align=left;verticalAlign=top;spacingLeft=4;spacingRight=4;overflow=hidden;points=[[0,0.5],[1,0.5]];portConstraint=eastwest;rotatable=0;whiteSpace=wrap;html=1;" vertex="1" parent="Wq5ZTLz32C6b916gWCb0-1">
          <mxGeometry y="30" width="230" height="100" as="geometry" />
        </mxCell>
        <mxCell id="Wq5ZTLz32C6b916gWCb0-19" value="+ getSource(): InetAddress&lt;br&gt;+ getDestination(): InetAddress&lt;div&gt;+ getType(): Type&lt;/div&gt;&lt;div&gt;&lt;/div&gt;+ getDate(): Date&lt;div&gt;+ getBytes(): int&lt;/div&gt;&lt;div&gt;+ toString(): String&lt;br&gt;+ equals(o: Object): boolean&lt;br&gt;+ hashCode(): int&lt;br&gt;&lt;/div&gt;" style="text;strokeColor=default;fillColor=none;align=left;verticalAlign=top;spacingLeft=4;spacingRight=4;overflow=hidden;points=[[0,0.5],[1,0.5]];portConstraint=eastwest;rotatable=0;whiteSpace=wrap;html=1;" vertex="1" parent="Wq5ZTLz32C6b916gWCb0-1">
          <mxGeometry y="130" width="230" height="130" as="geometry" />
        </mxCell>
        <mxCell id="Wq5ZTLz32C6b916gWCb0-10" value="&amp;lt;&amp;lt;utility&amp;gt;&amp;gt;&lt;br&gt;Builder" style="swimlane;fontStyle=0;childLayout=stackLayout;horizontal=1;startSize=30;horizontalStack=0;resizeParent=1;resizeParentMax=0;resizeLast=0;collapsible=1;marginBottom=0;whiteSpace=wrap;html=1;" vertex="1" collapsed="1" parent="1">
          <mxGeometry x="301.5" y="230" width="79" height="30" as="geometry">
            <mxRectangle x="261" y="490" width="280" height="370" as="alternateBounds" />
          </mxGeometry>
        </mxCell>
        <mxCell id="Wq5ZTLz32C6b916gWCb0-18" value="- date: Date&lt;div&gt;- bytes: int&lt;br&gt;- type: Type&lt;/div&gt;&lt;div&gt;- source: InetAddress&lt;br&gt;- destination: InetAddress&lt;/div&gt;" style="text;strokeColor=default;fillColor=none;align=left;verticalAlign=top;spacingLeft=4;spacingRight=4;overflow=hidden;points=[[0,0.5],[1,0.5]];portConstraint=eastwest;rotatable=0;whiteSpace=wrap;html=1;" vertex="1" parent="Wq5ZTLz32C6b916gWCb0-10">
          <mxGeometry y="30" width="280" height="90" as="geometry" />
        </mxCell>
        <mxCell id="Wq5ZTLz32C6b916gWCb0-11" value="&lt;u&gt;+ aPacket(): Builder&lt;/u&gt;&lt;div&gt;+ withDate(date: String, pattern: String): Builder&lt;/div&gt;&lt;div&gt;+ withDate(date: Date): Builder&lt;br&gt;+ withDate(date: String): Builder&amp;nbsp;&lt;/div&gt;&lt;div&gt;+ withBytes(bytes: String): Builder&lt;br&gt;+ withBytes(bytes: int): Builder&lt;/div&gt;&lt;div&gt;+ withType(type: Type): Builder&lt;/div&gt;&lt;div&gt;&lt;/div&gt;+ withType(type: String): Builder&lt;br&gt;+ withType(type: Type): Builder&lt;br&gt;+ withSource(source: InetAddress): Builder&lt;br&gt;+ withSource(source: String): Builder&lt;div&gt;+ withDestination(destination: InetAddress): Builder&lt;/div&gt;&lt;div&gt;&lt;/div&gt;+ withDestination(destination: String): Builder&lt;div&gt;+ but(): Builder&lt;br&gt;+ build(): Packet&lt;/div&gt;" style="text;strokeColor=none;fillColor=none;align=left;verticalAlign=top;spacingLeft=4;spacingRight=4;overflow=hidden;points=[[0,0.5],[1,0.5]];portConstraint=eastwest;rotatable=0;whiteSpace=wrap;html=1;" vertex="1" parent="Wq5ZTLz32C6b916gWCb0-10">
          <mxGeometry y="120" width="280" height="250" as="geometry" />
        </mxCell>
        <mxCell id="Wq5ZTLz32C6b916gWCb0-14" value="" style="endArrow=diamondThin;html=1;rounded=0;exitX=0.5;exitY=0;exitDx=0;exitDy=0;entryX=0.502;entryY=1.018;entryDx=0;entryDy=0;entryPerimeter=0;endFill=1;strokeWidth=1;endSize=22;" edge="1" parent="1" source="Wq5ZTLz32C6b916gWCb0-10" target="Wq5ZTLz32C6b916gWCb0-19">
          <mxGeometry width="50" height="50" relative="1" as="geometry">
            <mxPoint x="470" y="410" as="sourcePoint" />
            <mxPoint x="428.06999999999994" y="552.03" as="targetPoint" />
          </mxGeometry>
        </mxCell>
        <mxCell id="Wq5ZTLz32C6b916gWCb0-21" value="Parser" style="swimlane;fontStyle=0;childLayout=stackLayout;horizontal=1;startSize=30;horizontalStack=0;resizeParent=1;resizeParentMax=0;resizeLast=0;collapsible=1;marginBottom=0;whiteSpace=wrap;html=1;" vertex="1" parent="1">
          <mxGeometry x="350" y="320" width="450" height="140" as="geometry">
            <mxRectangle x="380.5" y="350" width="60" height="30" as="alternateBounds" />
          </mxGeometry>
        </mxCell>
        <mxCell id="Wq5ZTLz32C6b916gWCb0-23" value="startParse(): List&amp;lt;Packet&amp;gt;&lt;br&gt;setPacketParsedListener(packetParsedListener: OnPacketParsedListener):&amp;nbsp;void&amp;nbsp;&lt;br&gt;setFileParsedListener(fileParsedListener: OnFileParsedListener): void&lt;br&gt;getFile(): File&lt;div&gt;isResolveDomainAddress(): boolean&lt;br&gt;setResolveDomainAddress(resolveDomainAddress: boolean): void&lt;/div&gt;" style="text;strokeColor=default;fillColor=none;align=left;verticalAlign=top;spacingLeft=4;spacingRight=4;overflow=hidden;points=[[0,0.5],[1,0.5]];portConstraint=eastwest;rotatable=0;whiteSpace=wrap;html=1;" vertex="1" parent="Wq5ZTLz32C6b916gWCb0-21">
          <mxGeometry y="30" width="450" height="110" as="geometry" />
        </mxCell>
        <mxCell id="Wq5ZTLz32C6b916gWCb0-24" value="&lt;span style=&quot;font-family: -apple-system, BlinkMacSystemFont, &amp;quot;Segoe UI&amp;quot;, &amp;quot;Noto Sans&amp;quot;, Helvetica, Arial, sans-serif, &amp;quot;Apple Color Emoji&amp;quot;, &amp;quot;Segoe UI Emoji&amp;quot;; font-size: 16px; font-weight: 600; text-align: start;&quot;&gt;&lt;font style=&quot;color: light-dark(rgb(240, 246, 252), rgb(237, 237, 237));&quot;&gt;OnFileParsedListener&lt;/font&gt;&lt;/span&gt;" style="swimlane;fontStyle=0;childLayout=stackLayout;horizontal=1;startSize=30;horizontalStack=0;resizeParent=1;resizeParentMax=0;resizeLast=0;collapsible=1;marginBottom=0;whiteSpace=wrap;html=1;" vertex="1" collapsed="1" parent="1">
          <mxGeometry x="640" y="150" width="160" height="30" as="geometry">
            <mxRectangle x="810" y="130" width="170" height="140" as="alternateBounds" />
          </mxGeometry>
        </mxCell>
        <mxCell id="Wq5ZTLz32C6b916gWCb0-25" value="parsed(): void" style="text;strokeColor=default;fillColor=none;align=left;verticalAlign=top;spacingLeft=4;spacingRight=4;overflow=hidden;points=[[0,0.5],[1,0.5]];portConstraint=eastwest;rotatable=0;whiteSpace=wrap;html=1;" vertex="1" parent="Wq5ZTLz32C6b916gWCb0-24">
          <mxGeometry y="30" width="170" height="110" as="geometry" />
        </mxCell>
        <mxCell id="Wq5ZTLz32C6b916gWCb0-27" value="&lt;div style=&quot;text-align: start;&quot;&gt;&lt;span style=&quot;background-color: transparent; font-size: 16px;&quot;&gt;&lt;font style=&quot;color: light-dark(rgb(237, 237, 237), rgb(247, 247, 247));&quot; face=&quot;-apple-system, BlinkMacSystemFont, Segoe UI, Noto Sans, Helvetica, Arial, sans-serif, Apple Color Emoji, Segoe UI Emoji&quot;&gt;&lt;b style=&quot;&quot;&gt;OnPacketParsedListener&amp;nbsp;&lt;/b&gt;&lt;/font&gt;&lt;/span&gt;&lt;/div&gt;" style="swimlane;fontStyle=0;childLayout=stackLayout;horizontal=1;startSize=30;horizontalStack=0;resizeParent=1;resizeParentMax=0;resizeLast=0;collapsible=1;marginBottom=0;whiteSpace=wrap;html=1;" vertex="1" collapsed="1" parent="1">
          <mxGeometry x="640" y="200" width="200" height="30" as="geometry">
            <mxRectangle x="880" y="170" width="210" height="140" as="alternateBounds" />
          </mxGeometry>
        </mxCell>
        <mxCell id="Wq5ZTLz32C6b916gWCb0-28" value="parsed(packet: Packet): void" style="text;strokeColor=default;fillColor=none;align=left;verticalAlign=top;spacingLeft=4;spacingRight=4;overflow=hidden;points=[[0,0.5],[1,0.5]];portConstraint=eastwest;rotatable=0;whiteSpace=wrap;html=1;" vertex="1" parent="Wq5ZTLz32C6b916gWCb0-27">
          <mxGeometry y="30" width="210" height="110" as="geometry" />
        </mxCell>
        <mxCell id="Wq5ZTLz32C6b916gWCb0-29" value="&lt;div style=&quot;text-align: start;&quot;&gt;&lt;span style=&quot;background-color: transparent; font-size: 16px;&quot;&gt;&lt;font style=&quot;color: light-dark(rgb(237, 237, 237), rgb(239, 239, 239));&quot; face=&quot;-apple-system, BlinkMacSystemFont, Segoe UI, Noto Sans, Helvetica, Arial, sans-serif, Apple Color Emoji, Segoe UI Emoji&quot;&gt;&lt;b style=&quot;&quot;&gt;FileParserFactory&amp;nbsp;&lt;/b&gt;&lt;/font&gt;&lt;/span&gt;&lt;/div&gt;" style="swimlane;fontStyle=0;childLayout=stackLayout;horizontal=1;startSize=30;horizontalStack=0;resizeParent=1;resizeParentMax=0;resizeLast=0;collapsible=1;marginBottom=0;whiteSpace=wrap;html=1;" vertex="1" collapsed="1" parent="1">
          <mxGeometry x="640" y="265" width="140" height="30" as="geometry">
            <mxRectangle x="640" y="280" width="230" height="120" as="alternateBounds" />
          </mxGeometry>
        </mxCell>
        <mxCell id="Wq5ZTLz32C6b916gWCb0-30" value="&lt;u&gt;produce(filepath: String): Parser&lt;/u&gt;" style="text;strokeColor=default;fillColor=none;align=left;verticalAlign=top;spacingLeft=4;spacingRight=4;overflow=hidden;points=[[0,0.5],[1,0.5]];portConstraint=eastwest;rotatable=0;whiteSpace=wrap;html=1;" vertex="1" parent="Wq5ZTLz32C6b916gWCb0-29">
          <mxGeometry y="30" width="230" height="90" as="geometry" />
        </mxCell>
        <mxCell id="Wq5ZTLz32C6b916gWCb0-31" value="AbstractParser&amp;nbsp;" style="swimlane;fontStyle=0;childLayout=stackLayout;horizontal=1;startSize=30;horizontalStack=0;resizeParent=1;resizeParentMax=0;resizeLast=0;collapsible=1;marginBottom=0;whiteSpace=wrap;html=1;" vertex="1" parent="1">
          <mxGeometry x="350" y="500" width="450" height="320" as="geometry">
            <mxRectangle x="380.5" y="350" width="60" height="30" as="alternateBounds" />
          </mxGeometry>
        </mxCell>
        <mxCell id="Wq5ZTLz32C6b916gWCb0-33" value="# file: File&lt;br&gt;# resolveDomainAddress: boolean = false&lt;br&gt;- packetParsedListener: OnPacketParsedListener&amp;nbsp;&lt;br&gt;- fileParsedListener: OnFileParsedListener&amp;nbsp;&lt;div&gt;+ ParserStatus: enum&lt;/div&gt;" style="text;strokeColor=default;fillColor=none;align=left;verticalAlign=top;spacingLeft=4;spacingRight=4;overflow=hidden;points=[[0,0.5],[1,0.5]];portConstraint=eastwest;rotatable=0;whiteSpace=wrap;html=1;" vertex="1" parent="Wq5ZTLz32C6b916gWCb0-31">
          <mxGeometry y="30" width="450" height="80" as="geometry" />
        </mxCell>
        <mxCell id="Wq5ZTLz32C6b916gWCb0-32" value="+ AbstractParser():&amp;nbsp;AbstractParser&lt;br&gt;+ AbstractParser(file: FIle):&amp;nbsp;AbstractParser&lt;br&gt;+ AbstractParser(filepath: String):&amp;nbsp;AbstractParser&lt;div&gt;+ getFile(): File&lt;br&gt;+ setPacketParsedListener(packetParsedListener: OnPacketParsedListener):&amp;nbsp;void&lt;br&gt;&lt;div&gt;&lt;span style=&quot;background-color: transparent; color: light-dark(rgb(0, 0, 0), rgb(255, 255, 255));&quot;&gt;+ setResolveDomainAddress(resolveDomainAddress: boolean): void&lt;/span&gt;&amp;nbsp;&lt;br&gt;+ setFileParsedListener(fileParsedListener: OnFileParsedListener): void&lt;br&gt;&lt;div&gt;+ isResolveDomainAddress(): boolean&lt;br&gt;&lt;br&gt;&lt;/div&gt;&lt;/div&gt;&lt;/div&gt;" style="text;strokeColor=default;fillColor=none;align=left;verticalAlign=top;spacingLeft=4;spacingRight=4;overflow=hidden;points=[[0,0.5],[1,0.5]];portConstraint=eastwest;rotatable=0;whiteSpace=wrap;html=1;" vertex="1" parent="Wq5ZTLz32C6b916gWCb0-31">
          <mxGeometry y="110" width="450" height="210" as="geometry" />
        </mxCell>
      </root>
    </mxGraphModel>
  </diagram>
</mxfile>
